<svg xmlns="http://www.w3.org/2000/svg" width="25" height="19" viewBox="0 0 25 19">
    <g fill="#404553" fill-rule="nonzero">
        <path d="M14.014 12.708c.047.262.112.519.195.77H4.278a2.761 2.761 0 0 0-2.757 2.758 2.76 2.76 0 0 0 2.757 2.758 2.76 2.76 0 0 0 2.556-3.792h5.276a2.76 2.76 0 0 0 2.556 3.792 2.762 2.762 0 0 0 2.69-2.153c.656.269 1.365.41 2.096.41a5.488 5.488 0 0 0 3.907-1.62 5.493 5.493 0 0 0 1.619-3.908 5.493 5.493 0 0 0-1.619-3.91 5.488 5.488 0 0 0-3.907-1.619 5.6 5.6 0 0 0-.777.055l1.152-4.515h3.065V.009h-4.404l-.66 2.587L0 2.583l1.895 10.125h12.119zM5.31 16.236c0 .57-.464 1.033-1.033 1.033a1.034 1.034 0 0 1 0-2.067c.57 0 1.033.464 1.033 1.034zm10.47-3.528a3.81 3.81 0 0 1 3.672-4.789 3.807 3.807 0 0 1 3.8 3.804 3.807 3.807 0 0 1-3.8 3.803 3.808 3.808 0 0 1-3.673-2.818zm-1.115 4.561a1.034 1.034 0 0 1 0-2.067 1.034 1.034 0 0 1 0 2.067zm2.722-12.948l-.662 2.59a5.554 5.554 0 0 0-1.181.903 5.487 5.487 0 0 0-1.57 3.169H3.328L2.077 4.31l15.31.01z"/>
        <path d="M20.314 9.304H18.59v1.556H17.035v1.725h1.555v1.556h1.724v-1.556h1.555V10.86h-1.555z"/>
    </g>
</svg>
